HIERARCHY
ROOT Hips
{
	OFFSET -0.001795 -0.223333 0.028219
	CHANNELS 6 Xposition Yposition Zposition Zrotation Yrotation Xrotation 
	JOINT LeftUpLeg
	{
		OFFSET 0.069520 -0.091406 -0.006815
		CHANNELS 3 Zrotation Yrotation Xrotation
		JOINT LeftLeg
		{
			OFFSET 0.034277 -0.375199 -0.004496
			CHANNELS 3 Zrotation Yrotation Xrotation
			JOINT LeftFoot
			{
				OFFSET -0.013596 -0.397961 -0.043693
				CHANNELS 3 Zrotation Yrotation Xrotation
				JOINT LeftToe
				{
					OFFSET 0.026358 -0.055791 0.119288
					CHANNELS 3 Zrotation Yrotation Xrotation
					End Site
					{
						OFFSET 0.000000 0.000000 0.000000
					}
				}
			}
		}
	}
	JOINT RightUpLeg
	{
		OFFSET -0.067670 -0.090522 -0.004320
		CHANNELS 3 Zrotation Yrotation Xrotation
		JOINT RightLeg
		{
			OFFSET -0.038290 -0.382569 -0.008850
			CHANNELS 3 Zrotation Yrotation Xrotation
			JOINT RightFoot
			{
				OFFSET 0.015774 -0.398415 -0.042312
				CHANNELS 3 Zrotation Yrotation Xrotation
				JOINT RightToe
				{
					OFFSET -0.025372 -0.048144 0.123348
					CHANNELS 3 Zrotation Yrotation Xrotation
					End Site
					{
						OFFSET 0.000000 0.000000 0.000000
					}
				}
			}
		}
	}
	JOINT Spine
	{
		OFFSET -0.002533 0.108963 -0.026696
		CHANNELS 3 Zrotation Yrotation Xrotation
		JOINT Spine1
		{
			OFFSET 0.005487 0.135180 0.001092
			CHANNELS 3 Zrotation Yrotation Xrotation
			JOINT Spine2
			{
				OFFSET 0.001457 0.052922 0.025425
				CHANNELS 3 Zrotation Yrotation Xrotation
				JOINT Neck
				{
					OFFSET -0.002778 0.213870 -0.042857
					CHANNELS 3 Zrotation Yrotation Xrotation
					JOINT Head
					{
						OFFSET 0.005152 0.064970 0.051349
						CHANNELS 3 Zrotation Yrotation Xrotation
						End Site
						{
							OFFSET 0.000000 0.000000 0.000000
						}
					}
				}
				JOINT LeftShoulder
				{
					OFFSET 0.078845 0.121749 -0.034090
					CHANNELS 3 Zrotation Yrotation Xrotation
					JOINT LeftArm
					{
						OFFSET 0.090977 0.030469 -0.008868
						CHANNELS 3 Zrotation Yrotation Xrotation
						JOINT LeftForeArm
						{
							OFFSET 0.259612 -0.012772 -0.027456
							CHANNELS 3 Zrotation Yrotation Xrotation
							JOINT LeftHand
							{
								OFFSET 0.249234 0.008986 -0.001171
								CHANNELS 3 Zrotation Yrotation Xrotation
								End Site
								{
									OFFSET 0.000000 0.000000 0.000000
								}
							}
						}
					}
				}
				JOINT RightShoulder
				{
					OFFSET -0.081759 0.118833 -0.038615
					CHANNELS 3 Zrotation Yrotation Xrotation
					JOINT RightArm
					{
						OFFSET -0.096012 0.032551 -0.009143
						CHANNELS 3 Zrotation Yrotation Xrotation
						JOINT RightForeArm
						{
							OFFSET -0.253742 -0.013329 -0.021401
							CHANNELS 3 Zrotation Yrotation Xrotation
							JOINT RightHand
							{
								OFFSET -0.255298 0.007772 -0.005559
								CHANNELS 3 Zrotation Yrotation Xrotation
								End Site
								{
									OFFSET 0.000000 0.000000 0.000000
								}
							}
						}
					}
				}
			}
		}
	}
}
MOTION
Frames: 18
Frame Time: 0.050000
0.000000 0.943837 0.000000 -0.060643 -4.264104 6.471234 5.244525 -0.253235 -3.266569 1.915973 -0.078661 -2.783444 8.694182 18.216636 22.901135 0.000000 0.000000 0.000000 -3.403801 0.444879 -4.093027 -3.278851 -0.098280 -6.205286 1.622398 -4.884853 18.232346 0.000000 0.000000 0.000000 5.492535 0.350995 -5.492911 -3.005982 1.348230 -4.366779 -3.419891 5.381477 4.732337 6.683523 -3.267283 -11.503820 0.000000 0.000000 0.000000 -17.834233 0.534239 -2.826414 -54.603696 -4.196686 -4.489897 -6.624942 -17.253134 1.533116 0.000000 0.000000 0.000000 15.447631 -6.789468 -4.169502 62.758560 2.864274 -4.393394 8.280859 20.380828 2.161934 0.000000 0.000000 0.000000 
-0.000025 0.943294 -0.000033 -0.122776 -4.751995 7.268075 5.367379 -0.246210 -3.008857 1.738538 0.028151 -4.586324 8.931934 18.455168 23.277138 0.000000 0.000000 0.000000 -3.354036 0.533542 -5.217143 -3.336971 -0.080058 -5.911548 1.780700 -4.648617 18.059003 0.000000 0.000000 0.000000 6.336328 0.406139 -5.965464 -3.525846 1.562089 -4.360394 -4.274411 6.029471 3.777793 7.426528 -3.597458 -12.026947 0.000000 0.000000 0.000000 -18.798888 1.014438 -3.396788 -53.224712 -4.175193 -4.227787 -6.839989 -17.291000 1.541016 0.000000 0.000000 0.000000 15.485554 -8.256210 -4.847675 63.706320 1.938725 -4.790037 8.403230 20.300521 2.187082 0.000000 0.000000 0.000000 
-0.000028 0.943223 -0.000138 0.189206 -4.590164 7.034220 4.976635 -0.264754 -3.360191 1.854632 -0.029531 -3.645214 8.862592 18.389542 23.100678 0.000000 0.000000 0.000000 -3.539813 0.527742 -5.160171 -3.598695 -0.042817 -5.547094 1.633306 -4.781812 17.808505 0.000000 0.000000 0.000000 6.201685 0.384551 -5.753652 -3.386589 1.489555 -5.116857 -4.480214 5.543328 4.100890 6.949939 -3.522189 -10.892445 0.000000 0.000000 0.000000 -18.610047 0.463179 -2.973522 -53.365675 -3.689546 -4.511420 -5.982085 -16.784589 1.389579 0.000000 0.000000 0.000000 16.564320 -6.876232 -4.334670 62.551223 1.979969 -4.809559 8.125425 20.161295 2.108425 0.000000 0.000000 0.000000 
-0.000057 0.943355 -0.000121 0.298601 -4.371142 7.575284 5.328725 -0.282042 -3.630043 1.077949 0.065428 -4.317436 8.701517 18.210346 23.209625 0.000000 0.000000 0.000000 -3.636575 0.574606 -5.768642 -3.632787 -0.034781 -5.451108 1.493124 -5.001497 17.885944 0.000000 0.000000 0.000000 6.268585 0.408448 -6.101428 -3.598458 1.594314 -4.425338 -4.451586 4.903824 2.651243 7.010514 -3.795714 -9.536665 0.000000 0.000000 0.000000 -18.860768 1.093610 -3.279371 -53.623496 -4.024222 -4.251816 -5.002909 -16.200572 1.206437 0.000000 0.000000 0.000000 15.626377 -7.046121 -4.418585 62.908530 1.632590 -4.842302 9.354507 20.098198 2.263215 0.000000 0.000000 0.000000 
-0.000100 0.943730 -0.000143 0.536046 -4.047955 7.479515 4.835364 -0.302250 -3.878041 1.553003 0.007501 -3.857343 8.501563 17.999799 23.201924 0.000000 0.000000 0.000000 -3.735763 0.568665 -5.721043 -3.875824 -0.007971 -5.261183 1.317547 -5.241699 17.894627 0.000000 0.000000 0.000000 6.057108 0.382887 -5.909384 -3.402257 1.515150 -4.379627 -4.575543 4.701210 2.603832 6.569043 -3.495733 -9.515599 0.000000 0.000000 0.000000 -18.895002 0.727268 -3.097466 -53.560158 -4.548296 -4.008142 -5.139901 -15.646237 1.184240 0.000000 0.000000 0.000000 15.622638 -6.948774 -4.367391 62.759542 1.925120 -4.672476 9.402377 19.531105 2.196018 0.000000 0.000000 0.000000 
-0.000148 0.943983 -0.000069 0.685814 -3.911759 7.693168 4.719797 -0.315378 -4.032949 1.500003 0.022410 -4.065496 8.389678 17.877313 23.320260 0.000000 0.000000 0.000000 -3.800461 0.566912 -5.677407 -4.039258 -0.032019 -5.718738 1.280089 -5.350798 18.113458 0.000000 0.000000 0.000000 5.858306 0.378600 -5.966599 -3.287927 1.464230 -4.543677 -4.567402 4.620306 2.558814 6.662149 -3.617529 -9.171674 0.000000 0.000000 0.000000 -19.304536 0.939139 -3.276254 -53.340930 -4.682296 -3.912648 -4.838456 -15.349200 1.122104 0.000000 0.000000 0.000000 15.344030 -6.812739 -4.264695 63.053083 2.007634 -4.630966 9.196316 19.091223 2.105281 0.000000 0.000000 0.000000 
-0.000198 0.944173 -0.000056 0.764790 -3.668178 7.738473 4.577803 -0.327503 -4.179394 1.650824 0.007876 -3.991783 8.242617 17.723131 23.312914 0.000000 0.000000 0.000000 -3.761856 0.567579 -5.704732 -4.229113 -0.018793 -5.675069 1.158562 -5.527776 18.166666 0.000000 0.000000 0.000000 5.743114 0.363467 -5.872077 -3.206273 1.434770 -4.390543 -4.648578 4.288901 2.483760 6.588673 -3.497661 -9.629672 0.000000 0.000000 0.000000 -19.278235 0.919451 -3.219522 -53.483631 -4.606752 -3.958505 -4.942114 -15.192045 1.128876 0.000000 0.000000 0.000000 15.210399 -6.647990 -4.197105 63.249305 2.142813 -4.567460 9.257089 18.964208 2.089773 0.000000 0.000000 0.000000 
-0.000244 0.944488 -0.000146 0.780258 -3.335793 7.991487 4.487453 -0.353864 -4.562563 1.855173 -0.009497 -3.934264 8.055205 17.528382 23.331795 0.000000 0.000000 0.000000 -3.650364 0.578293 -5.859326 -4.417231 -0.016886 -5.786267 1.016746 -5.770591 18.374215 0.000000 0.000000 0.000000 5.684089 0.355118 -5.876378 -3.090041 1.387930 -4.375753 -4.841621 4.202031 2.409090 6.678195 -3.608679 -9.270931 0.000000 0.000000 0.000000 -19.238739 0.801823 -3.188465 -53.285992 -4.754112 -3.860438 -5.070624 -14.890272 1.119196 0.000000 0.000000 0.000000 15.329531 -6.726190 -4.229730 63.355506 2.254840 -4.496365 9.008729 18.745440 2.029305 0.000000 0.000000 0.000000 
-0.000298 0.944903 -0.000299 0.824012 -3.227548 8.088507 4.466401 -0.372552 -4.885219 1.835070 -0.023788 -3.618704 7.987850 17.459476 23.393305 0.000000 0.000000 0.000000 -3.610017 0.581615 -5.904444 -4.554987 -0.017099 -5.879352 0.991840 -5.849967 18.556643 0.000000 0.000000 0.000000 5.575180 0.334797 -5.713851 -3.057292 1.371633 -4.612540 -4.774857 4.201494 2.655472 6.679577 -3.585331 -9.430768 0.000000 0.000000 0.000000 -19.078391 0.735317 -3.126949 -53.361578 -4.925740 -3.815679 -5.289068 -14.637448 1.128741 0.000000 0.000000 0.000000 15.394456 -6.852567 -4.292377 63.165476 2.338877 -4.462386 9.039710 18.770496 2.041270 0.000000 0.000000 0.000000 
-0.000374 0.945229 -0.000443 0.858327 -3.024676 8.192902 4.465104 -0.392990 -5.235047 1.820671 -0.038298 -3.298014 7.876033 17.345616 23.397804 0.000000 0.000000 0.000000 -3.555741 0.586970 -5.985007 -4.685454 -0.010652 -5.885359 0.907341 -5.995624 18.694055 0.000000 0.000000 0.000000 5.580293 0.330213 -5.702564 -3.056503 1.374289 -4.507385 -4.844843 4.204095 2.587827 6.719142 -3.625415 -9.295732 0.000000 0.000000 0.000000 -18.800922 0.619845 -3.055000 -53.337010 -5.179362 -3.696009 -5.618804 -14.195166 1.131480 0.000000 0.000000 0.000000 15.421061 -6.905760 -4.301262 63.136906 2.514214 -4.351011 8.698839 18.602142 1.973777 0.000000 0.000000 0.000000 
-0.000438 0.945352 -0.000533 0.884907 -2.953784 8.271820 4.503720 -0.399402 -5.350142 1.724369 -0.030664 -3.287522 7.829585 17.297199 23.422784 0.000000 0.000000 0.000000 -3.557854 0.589073 -6.010964 -4.718756 -0.016367 -5.980529 0.882537 -6.047529 18.774545 0.000000 0.000000 0.000000 5.562216 0.318381 -5.601665 -3.049448 1.371432 -4.538743 -4.891363 4.249997 2.595675 6.823549 -3.710839 -9.182241 0.000000 0.000000 0.000000 -18.706783 0.459184 -2.978362 -53.307384 -5.278545 -3.647100 -5.680493 -14.080567 1.128046 0.000000 0.000000 0.000000 15.389201 -6.882122 -4.269015 63.099851 2.621921 -4.283832 8.543833 18.428143 1.932527 0.000000 0.000000 0.000000 
-0.000495 0.945314 -0.000573 0.899241 -2.799900 8.387824 4.621693 -0.407170 -5.504693 1.530113 -0.013715 -3.298331 7.750793 17.216211 23.373115 0.000000 0.000000 0.000000 -3.554520 0.587492 -5.985235 -4.729461 -0.032893 -6.203703 0.816426 -6.151166 18.856918 0.000000 0.000000 0.000000 5.559745 0.319839 -5.652800 -3.100286 1.396233 -4.348902 -4.907173 4.276060 2.400724 6.911412 -3.770966 -9.104098 0.000000 0.000000 0.000000 -18.351871 0.456878 -2.956220 -53.424800 -5.452285 -3.562594 -5.760724 -13.830095 1.112978 0.000000 0.000000 0.000000 15.174275 -7.149067 -4.358990 63.254523 2.580702 -4.273884 8.444058 18.410430 1.919092 0.000000 0.000000 0.000000 
-0.000547 0.945321 -0.000558 0.814227 -2.800197 8.450944 4.729846 -0.404771 -5.494705 1.512187 -0.006162 -3.424305 7.755413 17.221296 23.386382 0.000000 0.000000 0.000000 -3.392375 0.581248 -5.888082 -4.844774 -0.051097 -6.496748 0.852596 -6.131481 18.983561 0.000000 0.000000 0.000000 5.552475 0.323687 -5.704665 -3.090135 1.393164 -4.234461 -4.810853 4.373841 2.285500 7.062846 -3.937675 -8.717337 0.000000 0.000000 0.000000 -18.235853 0.442533 -2.951670 -53.419362 -5.659336 -3.459807 -5.800995 -13.817299 1.114371 0.000000 0.000000 0.000000 15.226925 -7.322973 -4.443048 63.115076 2.622922 -4.225731 8.482685 18.525590 1.940741 0.000000 0.000000 0.000000 
-0.000604 0.945302 -0.000522 0.726479 -2.807394 8.486863 4.865278 -0.401468 -5.483896 1.450412 0.002103 -3.493536 7.768054 17.235025 23.379528 0.000000 0.000000 0.000000 -3.235011 0.583142 -5.908305 -4.947552 -0.049104 -6.523995 0.868672 -6.117386 19.013988 0.000000 0.000000 0.000000 5.608097 0.327047 -5.736493 -3.080595 1.390253 -4.126967 -4.753298 4.488121 2.195555 7.165716 -4.073546 -8.325741 0.000000 0.000000 0.000000 -18.074063 0.514388 -2.986219 -53.414093 -5.779227 -3.400816 -6.012011 -13.733806 1.129699 0.000000 0.000000 0.000000 15.255812 -7.406092 -4.474314 62.948896 2.601587 -4.212706 8.449087 18.833085 1.976153 0.000000 0.000000 0.000000 
-0.000661 0.945340 -0.000467 0.706761 -2.866047 8.536211 4.895549 -0.401996 -5.507306 1.431020 0.004712 -3.518429 7.799846 17.268330 23.419945 0.000000 0.000000 0.000000 -3.193273 0.583775 -5.906875 -4.985169 -0.057061 -6.637447 0.911244 -6.074749 19.067028 0.000000 0.000000 0.000000 5.610068 0.326536 -5.737137 -3.103179 1.398738 -4.155046 -4.760023 4.639757 2.093931 7.303251 -4.231835 -7.945629 0.000000 0.000000 0.000000 -17.949955 0.635047 -3.057577 -53.318674 -5.663009 -3.435240 -6.205649 -13.915723 1.163864 0.000000 0.000000 0.000000 15.218000 -7.527331 -4.512149 62.870318 2.602275 -4.187777 8.577410 18.963577 2.015101 0.000000 0.000000 0.000000 
-0.000728 0.945156 -0.000420 0.661435 -2.957677 8.467317 5.052228 -0.395676 -5.483480 1.233158 0.013959 -3.381537 7.871444 17.343541 23.352269 0.000000 0.000000 0.000000 -3.119840 0.580732 -5.865441 -5.030128 -0.052506 -6.600128 0.949331 -6.004976 18.984428 0.000000 0.000000 0.000000 5.625877 0.317151 -5.619713 -3.133887 1.412815 -4.044658 -4.698506 4.671705 1.861259 7.459273 -4.324978 -8.009945 0.000000 0.000000 0.000000 -17.910962 0.874835 -3.172331 -53.200131 -5.444592 -3.505364 -6.507074 -14.139165 1.217811 0.000000 0.000000 0.000000 15.061030 -7.556458 -4.516059 62.921940 2.387138 -4.278124 8.782526 19.315302 2.086314 0.000000 0.000000 0.000000 
-0.000822 0.945080 -0.000386 0.631700 -3.063080 8.444362 5.070880 -0.391829 -5.436717 1.247776 0.012108 -3.372934 7.935496 17.410526 23.362566 0.000000 0.000000 0.000000 -3.040667 0.579640 -5.847171 -5.115596 -0.050924 -6.619191 1.003552 -5.928632 18.957346 0.000000 0.000000 0.000000 5.598254 0.315594 -5.595002 -3.064720 1.383057 -3.993526 -4.748788 4.849100 1.752899 7.591513 -4.419785 -7.947922 0.000000 0.000000 0.000000 -17.882165 0.946113 -3.236422 -53.024274 -5.180831 -3.595898 -6.765122 -14.412128 1.268874 0.000000 0.000000 0.000000 15.165341 -7.679675 -4.571300 62.707696 2.257843 -4.319443 9.182555 19.758852 2.210329 0.000000 0.000000 0.000000 
-0.000937 0.944930 -0.000365 0.584232 -3.183037 8.431304 5.176735 -0.386927 -5.409816 1.144289 0.018842 -3.341345 8.015773 17.495022 23.346841 0.000000 0.000000 0.000000 -3.016643 0.581740 -5.868462 -5.067457 -0.051195 -6.591403 1.055732 -5.844548 18.891111 0.000000 0.000000 0.000000 5.563253 0.306361 -5.492706 -3.060971 1.380849 -3.957670 -4.734195 4.917151 1.606326 7.827087 -4.603280 -7.833489 0.000000 0.000000 0.000000 -17.768373 1.180903 -3.340590 -53.006069 -5.058442 -3.638771 -7.018446 -14.597235 1.314767 0.000000 0.000000 0.000000 15.134475 -7.785686 -4.623097 62.683170 2.112040 -4.377146 9.563431 20.218324 2.331474 0.000000 0.000000 0.000000 
